<svg width="64" height="64" viewBox="0 0 64 64" fill="none" xmlns="http://www.w3.org/2000/svg">
<circle cx="32" cy="32" r="32" fill="#E4E4E4"/>
<circle cx="32" cy="32" r="25" fill="white"/>
<path d="M30.6875 39.8125C30.075 39.3525 29.1875 39.7875 29.1875 40.5625V41.42C28.42 41.3775 27.67 41.3212 26.9588 41.2425C20.865 40.615 18.875 39.13 18.875 38.6875C18.875 38.5525 19.2863 37.9162 21.285 37.2512C21.7 37.155 22.0063 36.7825 22.0063 36.3375C22.0063 35.7212 21.3588 35.2562 20.7713 35.4462C18.2688 36.265 17 37.355 17 38.6875C17 41.77 23.83 42.805 26.76 43.1075C27.535 43.1925 28.3488 43.255 29.1875 43.3V44.3125C29.1875 45.0875 30.075 45.5212 30.6875 45.0625L33.1875 43.1875C33.685 42.8137 33.6875 42.0625 33.1875 41.6875L30.6875 39.8125Z" fill="#319F1C"/>
<path d="M43.2226 35.4462C42.7276 35.285 42.2013 35.555 42.0401 36.0475C41.8801 36.54 42.1488 37.0687 42.6413 37.23C44.6688 37.89 45.1251 38.52 45.1251 38.6887C45.1251 39.2425 42.5538 40.7862 36.19 41.3175C35.6738 41.3612 35.2913 41.8137 35.3338 42.33C35.375 42.8237 35.7975 43.2237 36.3463 43.1862C39.5488 42.9162 47.0001 41.9425 47.0001 38.6875C47.0001 37.3537 45.7288 36.2625 43.2226 35.4462Z" fill="#319F1C"/>
<path d="M32 19L40.75 22.75L32 26.5L23.25 22.75L32 19Z" fill="#319F1C"/>
<path d="M33.25 28.6837V35.9637L40.75 32.75V25.47L33.25 28.6837Z" fill="#319F1C"/>
<path d="M30.75 28.6837L23.25 25.47V32.75L30.75 35.9637V28.6837Z" fill="#319F1C"/>
</svg>
