<svg width="36" height="44" viewBox="0 0 36 44" fill="none" xmlns="http://www.w3.org/2000/svg">
<path d="M12.7564 34.4348H15.4173L15.1825 33.4956C15.1043 33.1826 14.7912 32.8695 14.3999 32.8695H13.3043C12.0521 32.8695 10.8782 32.2435 10.0956 31.2261L7.66947 27.8608L4.69556 29.113L11.426 33.9652C11.739 34.2782 12.2869 34.4348 12.7564 34.4348Z" fill="#319F1C"/>
<path d="M24.2609 10.1739H10.174C9.15658 10.1739 8.29571 10.8 7.98267 11.7391H26.4522C26.1392 10.8 25.2783 10.1739 24.2609 10.1739Z" fill="#319F1C"/>
<path d="M24.2609 8.6087C25.0435 8.6087 25.8261 8.84348 26.4522 9.31304C25.8261 6.02609 23.5566 3.2087 20.3479 2.11304V7.04348H18.7827V0.782609C18.7827 0.313043 18.4696 0 18.0001 0H16.4348C15.9653 0 15.6522 0.313043 15.6522 0.782609V7.04348H14.087V2.11304C10.8783 3.2087 8.53049 5.94782 7.98267 9.31304C8.60875 8.84348 9.39136 8.6087 10.174 8.6087H24.2609Z" fill="#319F1C"/>
<path d="M21.0521 32.8696H19.9565C19.5652 32.8696 19.2521 33.1043 19.1739 33.4956L19.0173 34.4348H21.6782C22.1478 34.4348 22.6956 34.2783 23.0869 33.9652L28.1739 30.2087V28.2522L26.7652 27.7043L24.2608 31.2261C23.5565 32.2435 22.3826 32.8696 21.0521 32.8696Z" fill="#319F1C"/>
<path d="M32.8694 26.2956C32.8694 25.9826 32.2434 25.513 31.3042 25.513C30.3651 25.513 29.739 25.9826 29.739 26.2956V33.4956L32.8694 29.113V26.2956Z" fill="#319F1C"/>
<path d="M9.39139 18.4695V18.9391C9.39139 20.9739 10.487 22.7739 12.2088 23.713L14.5566 24.9652C16.2001 25.8261 18.1566 25.8261 19.8001 24.9652L22.1479 23.713C23.8696 22.7739 24.9653 20.8956 24.9653 18.9391V18.4695L26.374 17.6087C26.4523 17.5304 26.5305 17.4521 26.5305 17.2956V15.1043C26.5305 14.9478 26.374 14.7913 26.1392 14.7913C26.061 14.7913 25.9827 14.7913 25.9827 14.8695L25.0436 15.9652V13.3043H9.39139V15.9652L8.374 14.9478C8.21748 14.7913 7.98269 14.8695 7.90443 14.9478C7.82617 15.0261 7.82617 15.1043 7.82617 15.1043V17.2956C7.82617 17.3739 7.90443 17.5304 7.98269 17.6087L9.39139 18.4695Z" fill="#319F1C"/>
<path d="M32.8697 40.6957V37.0174L30.4436 40.6957H32.8697Z" fill="#319F1C"/>
<path d="M34.4349 29.6609V29.7391H34.3566L24.261 43.8261H36.0001V27.4695L34.4349 29.6609ZM34.4349 42.2609H27.4697L34.4349 31.8522V42.2609Z" fill="#319F1C"/>
<path d="M28.1739 32.1652L23.9478 35.2174C23.2435 35.687 22.4609 36 21.6783 36H18V43.8261H22.3043L28.1739 35.687V32.1652Z" fill="#319F1C"/>
<path d="M7.04346 42.2609H12.5217V43.8261H7.04346V42.2609Z" fill="#319F1C"/>
<path d="M7.04346 39.1304H12.5217V40.6956H7.04346V39.1304Z" fill="#319F1C"/>
<path d="M20.0349 31.3044H21.1305C21.9131 31.3044 22.6175 30.9131 23.0088 30.287L25.2783 27.1565L21.7566 25.8261L20.5827 26.4522C18.4696 27.6261 15.9653 27.6261 13.8523 26.4522L12.6783 25.8261L9.23486 27.2348L11.4262 30.287C11.8957 30.9131 12.6001 31.3044 13.3044 31.3044H14.4001C15.4957 31.3044 16.4349 32.0087 16.6696 33.1044L17.2175 35.1392L17.7653 33.1044C18.0001 32.0087 18.9392 31.3044 20.0349 31.3044Z" fill="#319F1C"/>
<path d="M10.487 35.2174L3.13043 29.8957C1.17391 31.2261 0 33.4174 0 35.7653V43.8261H5.47826V37.5653H6.8087L6.26087 35.374L7.74783 34.9826L8.37391 37.487H14.087V43.7479H16.4348V36H12.7565C11.8957 36 11.113 35.7653 10.487 35.2174Z" fill="#319F1C"/>
</svg>
