<svg width="31" height="31" viewBox="0 0 31 31" fill="none" xmlns="http://www.w3.org/2000/svg">
<g clip-path="url(#clip0)">
<path d="M21.6005 13.8217C21.8478 13.7643 22.0239 13.5453 22.0269 13.2914V10.9158C22.0269 10.7716 21.9695 10.6333 21.8675 10.5313L14.7974 3.46115C14.585 3.24883 14.2407 3.24883 14.0284 3.46115L6.95818 10.5313C6.85618 10.6333 6.79886 10.7716 6.79883 10.9158V18.4912C6.79883 18.7916 7.04232 19.0351 7.34269 19.0351H8.43041C8.73077 19.0351 8.97427 18.7916 8.97427 18.4912V13.0527C8.97427 12.4519 9.46125 11.9649 10.062 11.9649H13.3251C13.9259 11.9649 14.4129 12.4519 14.4129 13.0527V18.4912C14.4129 18.7916 14.6564 19.0351 14.9567 19.0351H15.9019C16.1399 19.0336 16.3491 18.8776 16.4186 18.6501C17.207 16.2607 19.1614 14.4396 21.6005 13.8217Z" fill="#319F1C"/>
<path d="M9.51821 26.3772C9.51913 25.8024 9.77922 25.2587 10.2261 24.8972C10.6731 24.5358 11.2592 24.3952 11.8215 24.5145C12.7117 24.7196 13.338 25.5181 13.3252 26.4316V27.7368C13.3252 28.0372 13.5687 28.2807 13.8691 28.2807H14.9568C15.2572 28.2807 15.5007 28.0372 15.5007 27.7368V26.5251C15.5305 24.3772 13.9271 22.5565 11.7926 22.3146C10.6623 22.2127 9.54065 22.5857 8.69651 23.3442C7.85236 24.1028 7.36192 25.1783 7.34277 26.313C7.34467 27.3138 6.5963 28.1571 5.60242 28.2742C5.07109 28.3199 4.54496 28.1406 4.15208 27.78C3.7592 27.4194 3.53562 26.9105 3.53576 26.3772V19.8509C3.53576 18.7996 4.38798 17.9474 5.43926 17.9474H5.71119V15.7719H5.43926C3.18652 15.7719 1.36032 17.5981 1.36032 19.8509V26.2352C1.32977 28.3198 2.84175 30.1073 4.90247 30.423C6.06768 30.5759 7.24229 30.2194 8.12605 29.4448C9.00981 28.6702 9.51708 27.5524 9.51821 26.3772Z" fill="#319F1C"/>
<path d="M12.7813 19.0351C13.0817 19.0351 13.3252 18.7916 13.3252 18.4912V13.0526H10.062V18.4912C10.062 18.7916 10.3055 19.0351 10.6059 19.0351H12.7813Z" fill="#319F1C"/>
<path d="M7.34269 1.63159C7.04232 1.63159 6.79883 1.87509 6.79883 2.17545V6.07601L8.43041 4.44443V2.17545C8.43041 1.87509 8.18691 1.63159 7.88655 1.63159H7.34269Z" fill="#319F1C"/>
<path d="M13.6439 0.769023L3.9202 10.4927C3.70769 10.705 3.70757 11.0495 3.91993 11.262C4.13229 11.4745 4.47671 11.4746 4.68922 11.2623L13.6439 2.3076C14.0686 1.88298 14.7571 1.88298 15.1819 2.3076L24.1366 11.2623C24.35 11.4684 24.6892 11.4654 24.8989 11.2556C25.1087 11.0458 25.1117 10.7066 24.9056 10.4932L15.1819 0.769023C14.7571 0.344397 14.0686 0.344397 13.6439 0.769023Z" fill="#319F1C"/>
<path d="M23.3862 14.6842C19.932 14.6842 17.1318 17.4844 17.1318 20.9386C17.1318 24.3928 19.932 27.193 23.3862 27.193C26.8404 27.193 29.6406 24.3928 29.6406 20.9386C29.6367 17.486 26.8388 14.6881 23.3862 14.6842ZM23.3862 25.5614C21.735 25.5596 20.3968 24.2214 20.395 22.5702C20.395 21.4504 21.7291 18.2133 22.4269 16.8944C22.616 16.5404 22.9848 16.3193 23.3862 16.3193C23.7876 16.3193 24.1564 16.5404 24.3456 16.8944C25.0434 18.2133 26.3774 21.4504 26.3774 22.5702C26.3757 24.2214 25.0375 25.5596 23.3862 25.5614Z" fill="#319F1C"/>
<path d="M12.6487 31H16.1772C16.3726 30.9998 16.5528 30.8948 16.6493 30.7251C16.7459 30.5553 16.744 30.3468 16.6444 30.1788L16.3219 29.6349C16.224 29.4698 16.0462 29.3685 15.8542 29.3684H12.9717C12.7797 29.3685 12.602 29.4698 12.504 29.6349L12.1815 30.1788C12.0819 30.3468 12.08 30.5553 12.1766 30.7251C12.2732 30.8948 12.4534 30.9998 12.6487 31Z" fill="#319F1C"/>
<path d="M21.4829 22.5702C21.4829 23.6215 22.3351 24.4737 23.3864 24.4737C24.4377 24.4737 25.2899 23.6215 25.2899 22.5702C25.2899 21.7636 24.1011 18.7583 23.3864 17.4035C22.6718 18.7583 21.4829 21.7636 21.4829 22.5702Z" fill="#319F1C"/>
</g>
<defs>
<clipPath id="clip0">
<rect width="31" height="31" fill="white" transform="translate(0.000488281)"/>
</clipPath>
</defs>
</svg>
