<svg width="26" height="26" viewBox="0 0 26 26" fill="none" xmlns="http://www.w3.org/2000/svg">
<path d="M10.7821 16.724V17.7863C10.7821 18.5355 10.1725 19.145 9.42325 19.145C8.67403 19.145 8.06445 18.5354 8.06445 17.7863V0H1.20947V17.7862C1.20947 22.3153 4.89412 26 9.42325 26C13.9524 26 17.637 22.3154 17.637 17.7862V16.724H10.7821Z" fill="#319F1C"/>
<path d="M18.8284 11.9911H9.59033V15.2006H18.8284V11.9911Z" fill="#319F1C"/>
<path d="M24.7916 0H21.582V9.23809H24.7916V0Z" fill="#319F1C"/>
<path d="M10.7817 9.40542V10.4677H17.6367V9.40542C17.6367 8.65614 18.2463 8.04661 18.9955 8.04661H20.0577V1.19164H18.9955C14.4664 1.19164 10.7817 4.87633 10.7817 9.40542Z" fill="#319F1C"/>
</svg>
