<svg width="22" height="30" viewBox="0 0 22 30" fill="none" xmlns="http://www.w3.org/2000/svg">
<path d="M4.1861 18.597C4.95482 19.2482 5.46455 20.1304 5.64872 21.0935H10.1212V14.8296C8.60653 14.4383 7.48436 13.0603 7.48436 11.4251H9.24224C9.24224 12.3943 10.0308 13.1829 11.0001 13.1829C11.9694 13.1829 12.758 12.3943 12.758 11.4251H14.5159C14.5159 13.0602 13.3937 14.4383 11.8791 14.8296V21.0934H16.3525C16.5387 20.1306 17.0533 19.244 17.8293 18.5841C20.1922 16.5749 21.5474 13.6451 21.5474 10.5461C21.5474 1.09152 10.0168 -3.55169 3.45037 3.19424C-0.835109 7.59703 -0.468767 14.6539 4.1861 18.597Z" fill="#319F1C"/>
<path d="M11.0001 30C12.9387 30 14.5159 28.4228 14.5159 26.4842H7.48438C7.48438 28.4228 9.06155 30 11.0001 30Z" fill="#319F1C"/>
<path d="M5.72681 22.8513H16.2741V24.7264H5.72681V22.8513Z" fill="#319F1C"/>
</svg>
