<svg width="26" height="30" viewBox="0 0 26 30" fill="none" xmlns="http://www.w3.org/2000/svg">
<path d="M25.1149 6.20367L23.2474 0.600996C23.1278 0.242109 22.7919 0 22.4136 0H3.58552C3.20724 0 2.87138 0.242109 2.75173 0.600996L0.868824 6.24943C0.779527 6.51744 0.82441 6.81211 0.989644 7.04133C1.15482 7.27049 1.42019 7.40631 1.70267 7.40631H3.64793V22.5938H2.64398C2.15859 22.5938 1.76507 22.9873 1.76507 23.4727C1.76507 23.958 2.15859 24.3516 2.64398 24.3516H3.64787V29.1211C3.64787 29.6065 4.04138 30 4.52677 30H21.4721C21.9575 30 22.351 29.6065 22.351 29.1211V24.3516H23.355C23.8404 24.3516 24.2339 23.9581 24.2339 23.4727C24.2339 22.9873 23.8404 22.5938 23.355 22.5938H22.351V7.40631H24.2964C24.2968 7.40631 24.2972 7.40631 24.2976 7.40631C24.783 7.40631 25.1765 7.01279 25.1765 6.5274C25.1764 6.41309 25.1546 6.30387 25.1149 6.20367ZM20.5932 22.5938H20.5932H5.40568V7.40631H12.1205V11.2969H10.1753C9.68988 11.2969 9.29636 11.6904 9.29636 12.1758V17.8241C9.29636 18.3096 9.68988 18.703 10.1753 18.703H15.8238C16.3092 18.703 16.7027 18.3096 16.7027 17.8241V12.1758C16.7027 11.6904 16.3092 11.2969 15.8238 11.2969H13.8784V7.40631H20.5932V22.5938Z" fill="#319F1C"/>
</svg>
