<svg width="27" height="27" viewBox="0 0 27 27" fill="none" xmlns="http://www.w3.org/2000/svg">
<g clip-path="url(#clip0)">
<path d="M21.4102 8.54302V0.691348C20.702 0.260613 19.8939 0 19.0371 0C18.1803 0 17.3722 0.260613 16.6641 0.691348V8.54302C17.3722 8.11229 18.1803 7.85167 19.0371 7.85167C19.8939 7.85167 20.702 8.11229 21.4102 8.54302Z" fill="#319F1C"/>
<path d="M11.918 1.58203H15.082V9.54492H11.918V1.58203Z" fill="#319F1C"/>
<path d="M11.918 11.127H15.082V17.4551H11.918V11.127Z" fill="#319F1C"/>
<path d="M10.3359 8.54302V0.691348C9.62777 0.260613 8.81967 0 7.96289 0C7.10612 0 6.29801 0.260613 5.58984 0.691348V8.54302C6.29801 8.11229 7.10612 7.85167 7.96289 7.85167C8.81967 7.85167 9.62777 8.11229 10.3359 8.54302Z" fill="#319F1C"/>
<path d="M11.918 19.0371H15.082V27H11.918V19.0371Z" fill="#319F1C"/>
<path d="M0.84375 1.58203H4.00781V9.54492H0.84375V1.58203Z" fill="#319F1C"/>
<path d="M22.9922 1.58203H26.1562V9.54492H22.9922V1.58203Z" fill="#319F1C"/>
<path d="M22.9922 19.0371H26.1562V27H22.9922V19.0371Z" fill="#319F1C"/>
<path d="M0.84375 19.0371H4.00781V27H0.84375V19.0371Z" fill="#319F1C"/>
<path d="M7.96289 25.3067C8.91738 25.3067 9.76335 25.7452 10.3359 26.4926V18.5297C9.76335 17.7823 8.91738 17.3439 7.96289 17.3439C7.0084 17.3439 6.16243 17.7823 5.58984 18.5297V26.4926C6.16243 25.7452 7.0084 25.3067 7.96289 25.3067Z" fill="#319F1C"/>
<path d="M19.0371 25.3067C19.9916 25.3067 20.8376 25.7452 21.4102 26.4926V18.5297C20.8376 17.7823 19.9916 17.3439 19.0371 17.3439C18.0826 17.3439 17.2367 17.7823 16.6641 18.5297V26.4926C17.2367 25.7452 18.0826 25.3067 19.0371 25.3067Z" fill="#319F1C"/>
<path d="M22.9922 11.127H26.1562V17.4551H22.9922V11.127Z" fill="#319F1C"/>
<path d="M0.84375 11.127H4.00781V17.4551H0.84375V11.127Z" fill="#319F1C"/>
<path d="M10.3359 16.4532V10.6196C9.76335 9.8722 8.91738 9.43372 7.96289 9.43372C7.0084 9.43372 6.16243 9.8722 5.58984 10.6196V16.4532C6.29801 16.0225 7.10612 15.7618 7.96289 15.7618C8.81967 15.7618 9.62777 16.0225 10.3359 16.4532Z" fill="#319F1C"/>
<path d="M21.4102 16.4532V10.6196C20.8376 9.8722 19.9916 9.43372 19.0371 9.43372C18.0826 9.43372 17.2367 9.8722 16.6641 10.6196V16.4532C17.3722 16.0225 18.1803 15.7618 19.0371 15.7618C19.8939 15.7618 20.702 16.0225 21.4102 16.4532Z" fill="#319F1C"/>
</g>
<defs>
<clipPath id="clip0">
<rect width="27" height="27" fill="white"/>
</clipPath>
</defs>
</svg>
